<svg xmlns="http://www.w3.org/2000/svg" width="26" height="26" viewBox="0 0 26 26" fill="none">
<path stroke="currentColor" stroke-width="1.5" stroke-linecap="round" stroke-linejoin="round" d="M17.0593 19.776C19.5436 19.4819 21.9845 18.8956 24.3313 18.0293C22.3438 15.8277 21.2456 12.966 21.25 10V9.06667V9C21.25 6.87827 20.4072 4.84344 18.9069 3.34315C17.4066 1.84286 15.3717 1 13.25 1C11.1283 1 9.09345 1.84286 7.59316 3.34315C6.09287 4.84344 5.25001 6.87827 5.25001 9V10C5.25403 12.9662 4.15533 15.8279 2.16734 18.0293C4.47801 18.8827 6.91401 19.476 9.44068 19.776M17.0593 19.776C14.5287 20.0762 11.9714 20.0762 9.44068 19.776M17.0593 19.776C17.2515 20.3758 17.2993 21.0125 17.1988 21.6343C17.0983 22.2561 16.8525 22.8453 16.4812 23.3541C16.1099 23.8629 15.6238 24.2768 15.0623 24.5621C14.5008 24.8475 13.8798 24.9962 13.25 24.9962C12.6202 24.9962 11.9992 24.8475 11.4378 24.5621C10.8763 24.2768 10.3901 23.8629 10.0188 23.3541C9.64757 22.8453 9.4017 22.2561 9.30123 21.6343C9.20076 21.0125 9.24854 20.3758 9.44068 19.776M1.41534 7C1.7913 4.76663 2.79374 2.68592 4.30601 1M22.194 1C23.7063 2.68592 24.7087 4.76663 25.0847 7" />
</svg>
