<svg xmlns="http://www.w3.org/2000/svg" width="26" height="26" viewBox="0 0 26 26" fill="none">
<path stroke="currentColor" stroke-width="1.5" stroke-linecap="round" stroke-linejoin="round" d="M0.75 14.5C0.75 13.672 1.422 13 2.25 13H5.25C6.078 13 6.75 13.672 6.75 14.5V23.5C6.75 24.328 6.078 25 5.25 25H2.25C1.85218 25 1.47064 24.842 1.18934 24.5607C0.908035 24.2794 0.75 23.8978 0.75 23.5V14.5ZM9.75 8.5C9.75 7.672 10.422 7 11.25 7H14.25C15.078 7 15.75 7.672 15.75 8.5V23.5C15.75 24.328 15.078 25 14.25 25H11.25C10.8522 25 10.4706 24.842 10.1893 24.5607C9.90804 24.2794 9.75 23.8978 9.75 23.5V8.5ZM18.75 2.5C18.75 1.672 19.422 1 20.25 1H23.25C24.078 1 24.75 1.672 24.75 2.5V23.5C24.75 24.328 24.078 25 23.25 25H20.25C19.8522 25 19.4706 24.842 19.1893 24.5607C18.908 24.2794 18.75 23.8978 18.75 23.5V2.5Z" />
</svg>
