<svg xmlns="http://www.w3.org/2000/svg" width="18" height="20" viewBox="0 0 18 20" fill="none">
<path fill="currentColor" d="M9.02819 1.7394C11.3604 1.7394 11.6366 1.74906 12.5579 1.79548C13.1119 1.80297 13.6606 1.91538 14.1802 2.12783C14.5569 2.28841 14.8991 2.5344 15.1847 2.84997C15.4702 3.16554 15.6928 3.54369 15.8381 3.96008C16.0304 4.53427 16.1321 5.14063 16.1389 5.75281C16.1805 6.77098 16.1896 7.07621 16.1896 9.65359C16.1896 12.231 16.1809 12.5362 16.1389 13.5544C16.1321 14.1666 16.0304 14.7729 15.8381 15.3471C15.6928 15.7635 15.4702 16.1416 15.1847 16.4572C14.8991 16.7728 14.5569 17.0188 14.1802 17.1794C13.6606 17.3918 13.1119 17.5042 12.5579 17.5117C11.637 17.5577 11.3608 17.5678 9.02819 17.5678C6.69553 17.5678 6.41934 17.5581 5.49843 17.5117C4.94447 17.5042 4.39579 17.3918 3.87622 17.1794C3.49943 17.0188 3.15725 16.7728 2.87169 16.4572C2.58614 16.1416 2.36354 15.7635 2.21823 15.3471C2.026 14.7729 1.92428 14.1666 1.9175 13.5544C1.87591 12.5362 1.86676 12.231 1.86676 9.65359C1.86676 7.07621 1.87549 6.77098 1.9175 5.75281C1.92428 5.14063 2.026 4.53427 2.21823 3.96008C2.36354 3.54369 2.58614 3.16554 2.87169 2.84997C3.15725 2.5344 3.49943 2.28841 3.87622 2.12783C4.39579 1.91538 4.94447 1.80297 5.49843 1.79548C6.41976 1.74952 6.69595 1.7394 9.02819 1.7394ZM9.02819 0C6.65726 0 6.35861 0.0110321 5.42688 0.0579188C4.7019 0.0738547 3.98461 0.225553 3.30553 0.50656C2.72299 0.749114 2.19535 1.12922 1.75944 1.62035C1.31462 2.10226 0.970379 2.68568 0.750759 3.32987C0.49648 4.08033 0.359211 4.87302 0.344791 5.6742C0.303196 6.70295 0.293213 7.033 0.293213 9.65313C0.293213 12.2733 0.303196 12.6033 0.345623 13.633C0.360043 14.4342 0.497312 15.2269 0.751591 15.9773C0.970967 16.6214 1.31492 17.2048 1.75944 17.6868C2.1956 18.1781 2.72352 18.5582 3.30636 18.8006C3.98544 19.0816 4.70273 19.2333 5.42771 19.2493C6.35944 19.2952 6.65685 19.3072 9.02902 19.3072C11.4012 19.3072 11.6986 19.2962 12.6303 19.2493C13.3553 19.2333 14.0726 19.0816 14.7517 18.8006C15.3317 18.5521 15.8585 18.1726 16.2983 17.6863C16.738 17.2 17.0811 16.6176 17.3056 15.9764C17.5599 15.2259 17.6972 14.4333 17.7116 13.6321C17.7532 12.6033 17.7632 12.2733 17.7632 9.65313C17.7632 7.033 17.7532 6.70295 17.7107 5.67329C17.6963 4.8721 17.5591 4.07941 17.3048 3.32895C17.0854 2.68485 16.7414 2.10143 16.2969 1.61943C15.8608 1.12819 15.3328 0.748076 14.75 0.50564C14.0709 0.224633 13.3536 0.0729354 12.6287 0.0569995C11.6978 0.0110322 11.3991 0 9.02819 0Z" />
<path fill="currentColor" d="M9.02663 4.69629C8.13946 4.69629 7.27221 4.98702 6.53456 5.53171C5.7969 6.07641 5.22197 6.8506 4.88247 7.7564C4.54296 8.66219 4.45413 9.6589 4.62721 10.6205C4.80029 11.5821 5.2275 12.4653 5.85482 13.1586C6.48215 13.8519 7.28141 14.324 8.15153 14.5153C9.02166 14.7065 9.92357 14.6084 10.7432 14.2332C11.5628 13.858 12.2634 13.2226 12.7563 12.4074C13.2492 11.5922 13.5123 10.6338 13.5123 9.6534C13.5123 8.3387 13.0397 7.07783 12.1984 6.14819C11.3572 5.21856 10.2163 4.69629 9.02663 4.69629ZM9.02663 12.8711C8.45076 12.8711 7.88782 12.6824 7.409 12.3288C6.93018 11.9753 6.55699 11.4727 6.33661 10.8848C6.11624 10.2968 6.05858 9.64983 6.17092 9.02566C6.28327 8.40148 6.56058 7.82814 6.96778 7.37814C7.37498 6.92813 7.89379 6.62168 8.4586 6.49752C9.0234 6.37336 9.60884 6.43708 10.1409 6.68063C10.6729 6.92417 11.1277 7.33659 11.4476 7.86574C11.7675 8.39489 11.9383 9.017 11.9383 9.6534C11.9383 10.5068 11.6315 11.3252 11.0855 11.9287C10.5394 12.5321 9.79885 12.8711 9.02663 12.8711Z" />
<path fill="currentColor" d="M13.69 5.65855C14.2689 5.65855 14.7382 5.13993 14.7382 4.50017C14.7382 3.86042 14.2689 3.3418 13.69 3.3418C13.1111 3.3418 12.6418 3.86042 12.6418 4.50017C12.6418 5.13993 13.1111 5.65855 13.69 5.65855Z" />
</svg>
