<svg xmlns="http://www.w3.org/2000/svg" width="30" height="28" viewBox="0 0 30 28" fill="none">
<path stroke="currentColor" stroke-width="1.5" stroke-linecap="round" stroke-linejoin="round" d="M11.9567 19.496C11.6079 18.6361 10.9709 17.9242 10.1549 17.4823C9.33895 17.0403 8.39468 16.8959 7.48388 17.0736C6.57308 17.2514 5.75242 17.7403 5.16245 18.4566C4.57249 19.1729 4.24994 20.072 4.25005 21C4.25005 21.4108 4.16568 21.8173 4.00216 22.1941C3.83864 22.571 3.59946 22.9103 3.29944 23.1909C2.99943 23.4716 2.64497 23.6876 2.25804 23.8256C1.87111 23.9636 1.45995 24.0207 1.05005 23.9934C1.70931 25.1386 2.72823 26.0342 3.94861 26.5411C5.169 27.048 6.52259 27.1378 7.79925 26.7966C9.0759 26.4554 10.2042 25.7022 11.009 24.6541C11.8138 23.606 12.2501 22.3215 12.25 21C12.25 20.468 12.146 19.96 11.9567 19.496ZM11.9567 19.496C13.5421 18.9559 15.0583 18.2309 16.474 17.336M9.75005 17.3027C10.2903 15.714 11.0162 14.1946 11.9127 12.776M16.4727 17.336C19.0012 15.7385 21.1654 13.627 22.8247 11.1387L27.9927 3.38668C28.1907 3.09143 28.28 2.73661 28.2455 2.38281C28.2109 2.02901 28.0546 1.69818 27.8033 1.44681C27.5519 1.19545 27.2211 1.03914 26.8673 1.00458C26.5135 0.97003 26.1586 1.05937 25.8634 1.25735L18.1114 6.42668C15.6227 8.08554 13.5108 10.2493 11.9127 12.7774C13.9419 13.6847 15.5654 15.3082 16.4727 17.3374" />
</svg>
