<svg xmlns="http://www.w3.org/2000/svg" width="29" height="28" viewBox="0 0 29 28" fill="none">
<path stroke="currentColor" stroke-width="1.5" stroke-linecap="round" stroke-linejoin="round" d="M13.4767 18.2267L21.25 26C21.9167 26.6454 22.8103 27.0028 23.7381 26.9953C24.6659 26.9878 25.5536 26.6158 26.2097 25.9597C26.8658 25.3036 27.2377 24.4159 27.2453 23.4881C27.2528 22.5603 26.8954 21.6667 26.25 21L18.414 13.164M13.4767 18.2267L16.8047 14.1867C17.2273 13.6747 17.7913 13.352 18.4153 13.1653C19.1487 12.9467 19.966 12.9147 20.7393 12.9787C21.7818 13.0682 22.8295 12.8835 23.7785 12.4431C24.7276 12.0026 25.5449 11.3217 26.1495 10.4677C26.7541 9.61383 27.1249 8.61666 27.2251 7.5752C27.3253 6.53373 27.1514 5.48417 26.7207 4.53067L22.3527 8.9C21.6219 8.73102 20.9532 8.36022 20.4228 7.82984C19.8924 7.29945 19.5216 6.63079 19.3527 5.9L23.7207 1.532C22.7672 1.10128 21.7176 0.927392 20.6761 1.02758C19.6347 1.12776 18.6375 1.49855 17.7836 2.10313C16.9297 2.70772 16.2487 3.52508 15.8082 4.47413C15.3678 5.42317 15.1831 6.4709 15.2727 7.51333C15.394 8.948 15.178 10.532 14.0673 11.4467L13.9313 11.56M13.4767 18.2267L7.27 25.764C6.96918 26.1307 6.59493 26.4303 6.17132 26.6436C5.74772 26.8569 5.28414 26.9791 4.81044 27.0025C4.33673 27.0258 3.86339 26.9496 3.42089 26.779C2.97838 26.6083 2.57651 26.3469 2.24115 26.0115C1.90578 25.6761 1.64435 25.2743 1.47368 24.8318C1.30301 24.3893 1.22689 23.9159 1.2502 23.4422C1.27352 22.9685 1.39576 22.5049 1.60906 22.0813C1.82236 21.6577 2.12199 21.2835 2.48866 20.9827L11.6047 13.476L6.12866 8H4.25L1.25 3L3.25 1L8.25 4V5.87867L13.93 11.5587L11.6033 13.4747M22.75 22.5L19.25 19M4.73933 23.5H4.75V23.5107H4.73933V23.5Z" />
</svg>
