<svg xmlns="http://www.w3.org/2000/svg" width="16" height="14" viewBox="0 0 16 14" fill="none">
<path fill="currentColor" d="M15.2937 2.35408C14.7534 2.61946 14.1831 2.78532 13.5827 2.88484C14.1831 2.48677 14.6633 1.8565 14.8735 1.09353C14.3031 1.45843 13.6728 1.72381 12.9824 1.88967C12.4421 1.2594 11.6616 0.861328 10.8212 0.861328C9.20023 0.861328 7.87948 2.32091 7.87948 4.11221C7.87948 4.37759 7.9095 4.6098 7.96953 4.842C5.53815 4.70931 3.3469 3.41559 1.87606 1.42526C1.63593 1.92284 1.48584 2.4536 1.48584 3.0507C1.48584 4.17856 1.99613 5.17373 2.80659 5.77083C2.32632 5.73765 1.87606 5.60497 1.45582 5.37276V5.40593C1.45582 6.9982 2.4764 8.32509 3.82717 8.62364C3.58704 8.68999 3.31688 8.72316 3.04673 8.72316C2.86663 8.72316 2.65651 8.68999 2.4764 8.65682C2.86663 9.95053 3.94724 10.9125 5.23798 10.9125C4.21739 11.775 2.95668 12.3058 1.57589 12.3058C1.33575 12.3058 1.09562 12.3058 0.885498 12.2726C2.20625 13.2014 3.73712 13.7322 5.41808 13.7322C10.8512 13.7322 13.8229 8.75633 13.8229 4.44393C13.8229 4.31125 13.8229 4.14538 13.8229 4.0127C14.3932 3.58146 14.9035 3.01753 15.2937 2.35408Z" />
</svg>
