<svg width="55" height="53" viewBox="0 0 55 53" fill="none" xmlns="http://www.w3.org/2000/svg">
<path fill="#FF8834" fill-rule="evenodd" clip-rule="evenodd" d="M42.866 5.97609L42.8579 5.97053L42.8561 5.97612L42.866 5.97609ZM42.866 5.97609L42.867 5.97933L42.8675 5.97873L42.866 5.97609ZM49.3473 17.1218L49.3233 17.1398L49.3197 17.1352L49.3473 17.1218ZM45.6081 13.7187C45.6178 13.724 45.6273 13.7295 45.6366 13.7351L45.5834 13.7091L45.5846 13.706C45.5925 13.7102 45.6004 13.7144 45.6081 13.7187ZM45.2531 7.15182L45.2589 7.15852L45.259 7.15775C48.3081 9.27761 50.4844 12.1219 52.0758 15.4501L52.0787 15.4473C53.6642 18.0066 54.4065 20.8479 54.7093 23.7932C55.0754 29.0157 54.4393 33.5614 52.5597 37.3142C52.4512 37.5308 52.339 37.6826 52.2259 37.8355L52.225 37.8368L52.2246 37.8373C52.1751 37.9042 52.1254 37.9714 52.0758 38.0444L52.0758 38.0445C50.3567 42.023 47.3818 44.9327 44.0089 47.495C43.145 48.1511 42.275 48.8013 41.2537 49.22C39.9414 49.7603 38.8161 49.4991 38.1362 48.445C37.3108 47.1684 37.3791 46.1797 38.5756 45.1702C39.3365 44.5276 40.1696 43.9688 41.0016 43.4106L41.0017 43.4106C41.2767 43.2261 41.5516 43.0417 41.8237 42.8544C43.3746 41.7834 44.5309 40.3449 45.6883 38.9051C46.0132 38.5008 46.3383 38.0965 46.6722 37.7001L46.6751 37.6976C47.9061 35.3865 49.0388 33.0367 49.4452 30.4171C50.2676 25.0996 49.5076 20.0997 46.4257 15.572C46.1397 15.1571 45.8674 14.734 45.5957 14.312L45.5955 14.3116L45.5954 14.3115C45.4667 14.1115 45.3382 13.9118 45.2084 13.7133L45.2085 13.7134C42.7561 11.0947 40.0098 8.8976 36.6459 7.517C32.4269 5.78606 28.0684 5.38227 23.5822 5.97311C23.2274 6.09255 22.8726 6.17881 22.5166 6.16954C21.7151 6.36987 20.729 6.63678 20.0185 6.87745L20.0044 6.88757C14.6364 8.91839 10.3758 12.306 7.62058 17.3682C3.5827 24.7849 4.51795 31.9877 8.87054 38.9412C10.1547 40.992 11.4735 43.0193 12.7926 45.047L12.7926 45.047L12.7927 45.0472L12.7928 45.0475C13.517 46.1607 14.2413 47.2741 14.96 48.3916C15.0016 48.4559 15.0436 48.5201 15.0859 48.5846C15.4453 49.133 15.8205 49.7057 16.0437 50.6302C9.87407 47.8364 5.05238 44.0034 2.47823 37.7654C2.33448 37.432 2.21263 37.1248 2.07843 36.7864L2.07842 36.7864C2.01305 36.6215 1.94476 36.4493 1.86958 36.2631C-2.3019 25.9309 0.735412 15.0346 8.71022 7.74859L8.71628 7.74602L8.71021 7.7456C9.15011 7.35613 9.39122 7.18335 9.61608 7.02221C9.77937 6.90519 9.9341 6.79431 10.1502 6.61104C10.1673 6.59286 10.1889 6.57437 10.2149 6.55557L10.2155 6.55503L10.2155 6.55511L10.2156 6.55505C14.4197 3.03972 19.3632 1.22564 24.7252 0.771382C32.0973 0.144917 38.7895 2.22917 44.7513 6.62333C44.8833 6.7208 44.9917 6.84881 45.1002 6.97698L45.1003 6.97707C45.1504 7.03629 45.2005 7.09553 45.2531 7.15182ZM43.8012 36.8599C43.5043 37.2518 43.2073 37.6467 42.9134 38.0386L42.9133 38.0387C42.1927 38.8507 41.8576 39.2283 41.4998 39.5829C41.1888 39.8911 40.8607 40.1819 40.2474 40.7255L40.2473 40.7256L40.2472 40.7256C39.4011 41.7054 38.448 42.5486 37.1772 42.9167C35.568 43.3829 34.4487 42.8781 33.9232 41.5005C33.4066 40.1436 33.8727 39.1431 35.4107 38.3118L35.4145 38.3089L35.4107 38.3088C38.065 36.6075 40.0305 34.3125 41.0043 31.3138C42.4532 26.8543 42.1712 22.5848 39.1992 18.7281C39.0588 18.5475 38.9414 18.348 38.8242 18.1488L38.8242 18.1488C38.7679 18.0531 38.7116 17.9575 38.6529 17.8641C36.0461 15.5067 33.1602 13.7252 29.5706 13.2918C24.0304 12.6237 19.4937 14.4141 15.9428 18.7132C15.8159 18.8663 15.6739 19.0085 15.5317 19.1509C15.4644 19.2183 15.397 19.2858 15.3312 19.3545L15.2816 19.4183C13.2642 22.4583 12.8459 25.8363 13.2083 29.378C13.313 29.506 13.3192 29.6158 13.2297 29.7059C13.2663 29.8545 13.298 30.0045 13.3297 30.1545L13.3297 30.1545L13.3297 30.1546L13.3297 30.1546L13.3297 30.1547L13.3297 30.1547L13.3297 30.1548L13.3297 30.1548L13.3298 30.1549L13.3298 30.1549L13.3298 30.155L13.3298 30.155L13.3298 30.1551L13.3298 30.1551L13.3298 30.1552L13.3298 30.1552L13.3298 30.1553L13.3299 30.1553L13.3299 30.1554L13.3299 30.1554L13.3299 30.1555C13.4288 30.6231 13.5276 31.0904 13.7724 31.5157C15.1577 34.2069 16.7692 36.7638 18.3808 39.3208C19.4255 40.9783 20.4701 42.6357 21.4533 44.33C21.6739 44.7102 22.4162 45.9398 22.4162 45.9398L22.456 46.0062C23.3605 47.2943 24.1275 48.6663 24.8946 50.0383C25.3202 50.7995 25.7458 51.5608 26.1949 52.3078C26.3077 52.7798 26.0939 52.9402 25.6456 52.8808V52.8778L25.6307 52.875C25.4593 52.8767 25.2877 52.8799 25.1161 52.8831H25.1159H25.1157H25.1155H25.1153H25.1151H25.1149H25.1147H25.1146C23.777 52.9077 22.4374 52.9324 21.1849 52.2969L21.1713 52.2929C20.1682 51.9246 19.8441 51.45 19.4456 50.8664L19.4454 50.8661C19.3949 50.7922 19.3433 50.7165 19.2889 50.6392C18.9982 50.2257 18.7668 49.7741 18.5354 49.3223L18.5354 49.3223L18.5353 49.3222L18.5353 49.3222L18.5353 49.3222L18.5353 49.3221L18.5353 49.3221L18.5352 49.3221L18.5352 49.322L18.5352 49.322L18.5352 49.322L18.5352 49.3219L18.5352 49.3219L18.5351 49.3219L18.5351 49.3218L18.5351 49.3218L18.5351 49.3218L18.5351 49.3217L18.5351 49.3217L18.535 49.3217L18.535 49.3216L18.535 49.3216L18.535 49.3216L18.535 49.3215L18.535 49.3215L18.5349 49.3214L18.5349 49.3214L18.5349 49.3214L18.5349 49.3213L18.5349 49.3213L18.5349 49.3213C18.4308 49.1181 18.3267 48.915 18.2171 48.7152L18.2201 48.7168C17.7492 48.0126 17.2754 47.3101 16.8015 46.6074L16.801 46.6067L16.801 46.6066L16.8009 46.6066L16.8009 46.6065L16.8008 46.6064L16.8008 46.6064L16.8008 46.6063L16.8007 46.6062L16.8007 46.6062L16.8006 46.6061L16.8006 46.606L16.8005 46.6059L16.8005 46.6059L16.8004 46.6058L16.8004 46.6057L16.8003 46.6057L16.8003 46.6056L16.8003 46.6055L16.8002 46.6055L16.8002 46.6054L16.8001 46.6053L16.8001 46.6053L16.8 46.6052L16.8 46.6051L16.7999 46.6051L16.7999 46.605L16.7998 46.6049L16.7998 46.6048L16.7998 46.6048L16.7997 46.6047L16.7997 46.6046L16.7996 46.6046L16.7996 46.6045L16.7995 46.6044L16.7995 46.6044L16.7994 46.6043L16.7994 46.6042L16.7993 46.6042L16.7993 46.6041L16.7992 46.604C14.1879 42.732 11.5744 38.8568 9.44952 34.6925C6.1925 28.3091 7.46621 19.9572 12.3562 14.7021C14.4998 12.3981 16.9641 10.5454 19.9896 9.53001C24.6302 7.81095 29.3034 7.69516 34.0152 9.22124C40.4521 11.5905 44.8759 15.8748 46.7405 22.5937L46.7447 22.6263C47.6663 26.1497 47.5719 29.5901 45.9402 32.9026C45.9178 32.9567 45.8945 33.011 45.8706 33.0655C45.7514 33.3365 45.6932 33.4607 45.6605 33.5306C45.6407 33.5728 45.6302 33.5952 45.6212 33.6182C45.6109 33.6443 45.6024 33.6711 45.5844 33.7284C45.5622 33.7993 45.5252 33.9168 45.4519 34.1373L45.4381 34.1358C44.9236 35.3345 44.6318 35.7303 44.1073 36.4417C44.0135 36.5689 43.9123 36.7061 43.8011 36.8599L43.8012 36.8599ZM38.2016 22.3889C36.435 18.5321 33.368 16.0945 28.9412 15.7531C28.6016 15.6864 28.2651 15.6605 27.9307 15.6623C24.7096 15.4758 21.8423 16.4169 19.4017 18.731C19.111 19.0067 19.1078 19.0097 19.1078 19.0127V19.0128C19.1078 19.0158 19.1078 19.022 18.8139 19.3129C18.2824 19.9186 18.1809 20.0435 18.1302 20.1059L18.1302 20.1059L18.1105 20.13C18.0728 20.1756 18.0326 20.2191 17.7509 20.5243L17.7532 20.5252C15.2063 23.8473 14.5891 27.5761 16.5425 31.2128C19.1731 36.1117 22.252 40.7731 25.3605 45.3988C26.1141 46.9861 27.0574 48.4606 28.0956 49.8789L28.095 49.8791C28.2357 50.1023 28.3794 50.3239 28.5231 50.5454C28.8553 51.0575 29.1872 51.5693 29.4815 52.0999C29.8259 52.7145 30.3188 52.8808 30.9631 52.7679C31.2553 52.7167 31.548 52.6678 31.8406 52.619C32.6153 52.4898 33.3897 52.3606 34.1548 52.186C34.6922 52.0643 35.2979 51.7644 34.8228 51.0608C34.328 50.3242 33.8856 49.5539 33.4431 48.7835C32.7147 47.5151 31.9861 46.2467 31.0239 45.1287L31.0195 45.1197C30.969 45.0247 30.9156 44.9327 30.8621 44.8406L30.8565 44.8338C30.4316 43.7175 29.7057 42.7901 28.9768 41.8627L28.9749 41.8599L28.9767 41.8597C28.8694 41.6598 28.7647 41.4579 28.6598 41.2558C28.4253 40.8038 28.1904 40.351 27.9257 39.918C27.0361 38.4671 26.1409 37.0199 25.2458 35.5727C24.1664 33.8275 23.087 32.0824 22.0173 30.331C19.3155 25.9101 22.4122 20.1621 28.0029 20.6876C31.5509 21.0202 34.3299 24.3366 33.7925 27.8816C33.5355 29.5796 32.427 30.5238 31.2852 31.4965C31.1213 31.6361 30.9567 31.7763 30.7938 31.9194C29.4874 33.0714 29.2766 34.1522 29.9535 35.313C30.6691 36.5422 31.6667 36.8183 33.4065 36.2691L33.3825 36.2682L33.4096 36.2631C34.2053 36.0642 34.8525 35.6159 35.4255 35.0429C35.6406 34.7562 35.879 34.4891 36.1177 34.2218L36.1177 34.2217L36.1177 34.2217L36.1177 34.2217L36.1178 34.2216L36.1178 34.2216L36.1178 34.2216L36.1178 34.2215L36.1179 34.2215L36.1179 34.2215L36.1179 34.2214L36.1179 34.2214L36.1179 34.2213L36.118 34.2213L36.118 34.2213L36.118 34.2212L36.118 34.2212L36.1181 34.2212L36.1181 34.2211L36.1181 34.2211L36.1181 34.2211L36.1181 34.221L36.1182 34.221L36.1182 34.221L36.1182 34.2209L36.1182 34.2209L36.1183 34.2209L36.1183 34.2208L36.1183 34.2208L36.1183 34.2208L36.1184 34.2207L36.1184 34.2207L36.1184 34.2207L36.1184 34.2206C36.3046 34.0121 36.491 33.8035 36.6666 33.5851C39.505 30.1707 40.0038 26.3169 38.2016 22.3889ZM18.4054 25.3983L18.4046 25.4001L18.406 25.3995L18.4054 25.3983Z" />
</svg>
