<svg xmlns="http://www.w3.org/2000/svg" width="229" height="62" viewBox="0 0 229 62" fill="none">
<path fill="#FF8834" d="M67.3672 42.0408C65.1337 42.0408 63.3788 41.5131 62.1025 40.4577C61.5871 40.0159 61.133 39.3655 60.7403 38.5065C60.3722 37.6474 60.1881 36.6411 60.1881 35.4876C60.1881 34.334 60.4581 33.3277 60.998 32.4687C61.5626 31.6096 62.2375 30.9469 63.0229 30.4806C63.8083 30.0143 64.7287 29.6338 65.7841 29.3393C67.3795 28.9221 69.1344 28.7135 71.0488 28.7135H72.2637C72.2637 27.7071 71.9201 26.9954 71.2329 26.5781C70.9383 26.4063 70.4843 26.3204 69.8707 26.3204C69.2816 26.3204 68.5576 26.48 67.6985 26.799C66.8641 27.1181 66.1645 27.4494 65.6 27.7931C65.0355 28.1121 64.6551 28.2717 64.4587 28.2717C64.017 28.2717 63.4156 27.6949 62.6548 26.5413C61.8939 25.3632 61.5135 24.2955 61.5135 23.3383C61.5135 23.0193 61.9675 22.602 62.8757 22.0866C63.7838 21.5712 65.0601 21.1048 66.7045 20.6876C68.3735 20.2458 69.9934 20.0249 71.5642 20.0249C73.135 20.0249 74.4849 20.1599 75.614 20.4299C76.7675 20.6753 77.7002 20.9821 78.412 21.3503C79.1483 21.7184 79.7619 22.2093 80.2528 22.8229C80.7682 23.4365 81.1486 23.9887 81.3941 24.4796C81.6641 24.9705 81.8604 25.6086 81.9831 26.394C82.1549 27.3022 82.2408 28.4189 82.2408 29.7443V40.8259C82.2408 41.0959 81.5781 41.3168 80.2528 41.4886C78.9519 41.6358 77.6511 41.7095 76.3503 41.7095C75.074 41.7095 74.2395 41.6727 73.8468 41.599C73.4786 41.5254 73.2577 41.4395 73.1841 41.3413C73.1105 41.2431 73.0491 41.0713 73 40.8259L72.7055 38.7274H72.411C71.7974 40.9363 70.1161 42.0408 67.3672 42.0408ZM72.3005 35.9294V31.6219C71.6624 31.6219 71.147 31.8919 70.7543 32.4319C70.3616 32.9718 70.1652 33.5854 70.1652 34.2727C70.1652 35.8926 70.5334 36.7025 71.2697 36.7025C71.5888 36.7025 71.8342 36.6289 72.006 36.4816C72.2024 36.3098 72.3005 36.1257 72.3005 35.9294ZM89.5695 41.0836C88.9805 40.8136 88.3423 40.4086 87.6551 39.8687C86.9924 39.3287 86.4402 38.6906 85.9984 37.9542C84.9675 36.1871 84.4521 33.88 84.4521 31.0329C84.4521 29.2657 84.7343 27.6949 85.2989 26.3204C85.8634 24.9214 86.5506 23.8415 87.3606 23.0806C88.1705 22.3198 89.1032 21.6939 90.1586 21.203C91.8521 20.4176 93.5456 20.0249 95.2392 20.0249C98.0863 20.0249 100.062 20.2458 101.167 20.6876C102.296 21.1294 102.86 21.878 102.86 22.9333C102.86 23.9887 102.664 25.1178 102.271 26.3204C101.903 27.4985 101.412 28.0876 100.798 28.0876C100.602 28.0876 100.001 27.879 98.9944 27.4617C98.0126 27.0445 97.1536 26.8358 96.4173 26.8358C95.7055 26.8358 95.1533 27.1304 94.7606 27.7194C94.3924 28.2839 94.2083 29.4007 94.2083 31.0697C94.2083 32.7141 94.3801 33.8431 94.7237 34.4567C95.0674 35.0458 95.595 35.3403 96.3068 35.3403C97.0431 35.3403 97.9513 35.0949 99.0312 34.604C100.111 34.1131 100.712 33.8677 100.835 33.8677C101.302 33.8677 101.743 34.4199 102.161 35.5244C102.602 36.6289 102.823 37.6106 102.823 38.4697C102.823 39.795 102.136 40.7277 100.762 41.2677C99.3871 41.7831 97.5217 42.0408 95.1655 42.0408C92.8339 42.0408 90.9685 41.7217 89.5695 41.0836ZM112.462 42.0408C109.713 42.0408 107.786 41.329 106.682 39.9055C105.602 38.4819 105.062 36.003 105.062 32.4687V22.4547C105.062 21.9639 105.786 21.4975 107.234 21.0557C108.682 20.5894 110.204 20.3562 111.799 20.3562C113.934 20.3562 115.002 20.9085 115.002 22.013V31.3642C115.002 33.2295 115.076 34.5917 115.223 35.4508C115.37 36.2853 115.738 36.7025 116.327 36.7025C117.113 36.7025 117.506 36.3712 117.506 35.7085V22.4547C117.506 21.9393 118.266 21.4607 119.788 21.0189C121.31 20.5771 122.967 20.3562 124.758 20.3562C126.55 20.3562 127.446 20.8348 127.446 21.7921V40.7523C127.446 41.0959 126.673 41.3413 125.127 41.4886C123.58 41.6358 122.059 41.7095 120.561 41.7095C119.064 41.7095 118.303 41.5131 118.279 41.1204L117.911 38.7274H117.616C117.395 39.611 116.953 40.335 116.291 40.8995C115.947 41.194 115.432 41.464 114.744 41.7095C114.082 41.9304 113.321 42.0408 112.462 42.0408ZM137.008 42.0408C134.775 42.0408 133.02 41.5131 131.744 40.4577C131.228 40.0159 130.774 39.3655 130.381 38.5065C130.013 37.6474 129.829 36.6411 129.829 35.4876C129.829 34.334 130.099 33.3277 130.639 32.4687C131.204 31.6096 131.879 30.9469 132.664 30.4806C133.449 30.0143 134.37 29.6338 135.425 29.3393C137.021 28.9221 138.775 28.7135 140.69 28.7135H141.905C141.905 27.7071 141.561 26.9954 140.874 26.5781C140.579 26.4063 140.125 26.3204 139.512 26.3204C138.923 26.3204 138.199 26.48 137.34 26.799C136.505 27.1181 135.806 27.4494 135.241 27.7931C134.677 28.1121 134.296 28.2717 134.1 28.2717C133.658 28.2717 133.057 27.6949 132.296 26.5413C131.535 25.3632 131.155 24.2955 131.155 23.3383C131.155 23.0193 131.609 22.602 132.517 22.0866C133.425 21.5712 134.701 21.1048 136.346 20.6876C138.015 20.2458 139.634 20.0249 141.205 20.0249C142.776 20.0249 144.126 20.1599 145.255 20.4299C146.409 20.6753 147.341 20.9821 148.053 21.3503C148.789 21.7184 149.403 22.2093 149.894 22.8229C150.409 23.4365 150.79 23.9887 151.035 24.4796C151.305 24.9705 151.501 25.6086 151.624 26.394C151.796 27.3022 151.882 28.4189 151.882 29.7443V40.8259C151.882 41.0959 151.219 41.3168 149.894 41.4886C148.593 41.6358 147.292 41.7095 145.991 41.7095C144.715 41.7095 143.881 41.6727 143.488 41.599C143.12 41.5254 142.899 41.4395 142.825 41.3413C142.752 41.2431 142.69 41.0713 142.641 40.8259L142.347 38.7274H142.052C141.438 40.9363 139.757 42.0408 137.008 42.0408ZM141.942 35.9294V31.6219C141.303 31.6219 140.788 31.8919 140.395 32.4319C140.003 32.9718 139.806 33.5854 139.806 34.2727C139.806 35.8926 140.174 36.7025 140.911 36.7025C141.23 36.7025 141.475 36.6289 141.647 36.4816C141.843 36.3098 141.942 36.1257 141.942 35.9294ZM176.661 29.4866V40.8259C176.661 41.0959 175.962 41.3168 174.563 41.4886C173.164 41.6358 171.716 41.7095 170.219 41.7095C168.746 41.7095 167.789 41.6481 167.347 41.5254C166.93 41.3781 166.721 41.145 166.721 40.8259V29.1184C166.721 28.0139 166.672 27.2899 166.574 26.9463C166.5 26.6027 166.426 26.2959 166.353 26.0259C166.181 25.5596 165.874 25.3264 165.432 25.3264C164.745 25.3264 164.402 25.6577 164.402 26.3204V40.8259C164.402 41.0959 163.702 41.3168 162.303 41.4886C160.929 41.6358 159.493 41.7095 157.996 41.7095C156.523 41.7095 155.566 41.6481 155.124 41.5254C154.682 41.3781 154.461 41.145 154.461 40.8259V22.6756C154.461 22.1602 155.161 21.6448 156.56 21.1294C157.983 20.6139 159.481 20.3562 161.051 20.3562C162.622 20.3562 163.506 20.8103 163.702 21.7184L164.033 23.3383H164.291C165.003 21.9148 166.23 20.9207 167.973 20.3562C168.685 20.1353 169.47 20.0249 170.329 20.0249C172.808 20.0249 174.477 20.7735 175.336 22.2707C176.22 23.7433 176.661 26.1486 176.661 29.4866ZM186.154 42.0408C185.246 42.0408 184.399 41.9058 183.614 41.6358C182.829 41.3659 182.178 41.0345 181.663 40.6418C181.172 40.2491 180.742 39.7214 180.374 39.0587C180.006 38.396 179.724 37.7702 179.527 37.1811C179.331 36.5675 179.184 35.8189 179.086 34.9353C178.938 33.6345 178.865 32.1496 178.865 30.4806C178.865 27.069 179.491 24.4796 180.742 22.7125C181.994 20.9207 183.712 20.0249 185.897 20.0249C188.13 20.0249 189.75 20.5526 190.756 21.608C190.977 21.8534 191.149 22.1479 191.272 22.4916H191.566L191.125 19.9513V15.3493C191.125 14.8093 191.812 14.2816 193.186 13.7662C194.561 13.2508 196.046 12.993 197.641 12.993C199.31 12.993 200.378 13.3121 200.844 13.9503C201.016 14.1957 201.102 14.4411 201.102 14.6866V40.8259C201.102 41.0959 200.414 41.3168 199.04 41.4886C197.69 41.6358 196.377 41.7095 195.101 41.7095C193.849 41.7095 193.039 41.6727 192.671 41.599C192.327 41.5008 192.106 41.4027 192.008 41.3045C191.934 41.2063 191.885 41.0468 191.861 40.8259L191.566 38.7274H191.272C191.051 39.5864 190.609 40.3105 189.946 40.8995C189.112 41.6604 187.848 42.0408 186.154 42.0408ZM190.278 36.6657C190.67 36.6657 190.965 36.4203 191.161 35.9294V26.0995C191.161 25.8541 191.026 25.67 190.756 25.5473C190.511 25.4 190.29 25.3264 190.094 25.3264C189.259 25.3264 188.842 27.2408 188.842 31.0697C188.842 33.1068 188.952 34.5549 189.173 35.4139C189.419 36.2484 189.787 36.6657 190.278 36.6657ZM215.02 42.0408C213.18 42.0408 211.596 41.8813 210.271 41.5622C208.946 41.2431 207.743 40.6786 206.663 39.8687C204.43 38.2488 203.313 35.2299 203.313 30.812C203.313 26.8849 204.454 24.0746 206.737 22.3811C208.872 20.8103 211.633 20.0249 215.02 20.0249C216.468 20.0249 217.708 20.0985 218.739 20.2458C219.77 20.3685 220.813 20.6508 221.868 21.0926C222.948 21.5343 223.807 22.1357 224.445 22.8965C225.108 23.6574 225.648 24.7128 226.065 26.0627C226.482 27.3881 226.691 28.9712 226.691 30.812C226.691 34.5426 225.636 37.3529 223.525 39.2428C221.414 41.1081 218.579 42.0408 215.02 42.0408ZM213.732 34.8617C213.904 35.7453 214.075 36.273 214.247 36.4448C214.444 36.6166 214.689 36.7025 214.984 36.7025C215.303 36.7025 215.548 36.6166 215.72 36.4448C215.916 36.273 216.088 35.7453 216.235 34.8617C216.407 33.9781 216.493 32.8736 216.493 31.5483C216.493 30.1984 216.456 29.1675 216.383 28.4557C216.333 27.7194 216.26 27.1549 216.162 26.7622C216.088 26.3695 215.978 26.0627 215.83 25.8418C215.609 25.5227 215.339 25.3632 215.02 25.3632C214.726 25.3632 214.48 25.4614 214.284 25.6577C214.088 25.8295 213.904 26.3695 213.732 27.2776C213.56 28.1612 213.474 29.4252 213.474 31.0697C213.474 32.7141 213.56 33.9781 213.732 34.8617Z" />
<path fill="#26262E" d="M138.898 53.6539C138.898 54.9442 139.595 55.5894 140.988 55.5894C141.711 55.5894 142.253 55.4389 142.614 55.1378C142.984 54.8281 143.169 54.3335 143.169 53.6539V47.4088H144.15V53.6281C144.15 54.626 143.883 55.3485 143.35 55.7958C142.825 56.2431 142.046 56.4668 141.014 56.4668C139.982 56.4668 139.203 56.2431 138.679 55.7958C138.163 55.3485 137.904 54.626 137.904 53.6281V47.4088H138.898V53.6539ZM147.073 56.3378H146.105V49.8862H147.06V50.3378C147.757 49.9507 148.423 49.7572 149.06 49.7572C149.92 49.7572 150.496 49.9894 150.789 50.454C151.09 50.9185 151.241 51.7443 151.241 52.9313V56.3378H150.286V52.9572C150.286 52.0625 150.195 51.4518 150.015 51.1249C149.843 50.7894 149.468 50.6217 148.892 50.6217C148.617 50.6217 148.324 50.6647 148.015 50.7507C147.714 50.8281 147.481 50.9056 147.318 50.983L147.073 51.0991V56.3378ZM153.035 56.3378V49.8862H154.003V56.3378H153.035ZM153.035 48.4282V47.3056H154.003V48.4282H153.035ZM160.245 55.5378L160.619 55.4991L160.645 56.2603C159.664 56.398 158.826 56.4668 158.129 56.4668C157.2 56.4668 156.542 56.2001 156.155 55.6668C155.768 55.1249 155.574 54.2862 155.574 53.1507C155.574 50.8884 156.473 49.7572 158.271 49.7572C159.14 49.7572 159.789 50.0023 160.219 50.4927C160.649 50.9744 160.864 51.7357 160.864 52.7765L160.813 53.512H156.555C156.555 54.226 156.684 54.755 156.942 55.0991C157.2 55.4432 157.647 55.6152 158.284 55.6152C158.929 55.6152 159.583 55.5894 160.245 55.5378ZM159.897 52.7378C159.897 51.9464 159.768 51.3873 159.51 51.0604C159.26 50.7335 158.847 50.5701 158.271 50.5701C157.703 50.5701 157.273 50.7421 156.981 51.0862C156.697 51.4303 156.55 51.9808 156.542 52.7378H159.897ZM163.34 56.3378H162.373V49.8862H163.327V50.3378C164.024 49.9507 164.691 49.7572 165.327 49.7572C166.188 49.7572 166.764 49.9894 167.056 50.454C167.357 50.9185 167.508 51.7443 167.508 52.9313V56.3378H166.553V52.9572C166.553 52.0625 166.463 51.4518 166.282 51.1249C166.11 50.7894 165.736 50.6217 165.16 50.6217C164.884 50.6217 164.592 50.6647 164.282 50.7507C163.981 50.8281 163.749 50.9056 163.585 50.983L163.34 51.0991V56.3378ZM174.258 47.0733V56.3378H173.303V55.8991C172.641 56.2776 171.987 56.4668 171.342 56.4668C170.998 56.4668 170.696 56.4238 170.438 56.3378C170.18 56.2517 169.939 56.0969 169.716 55.8733C169.251 55.4087 169.019 54.5528 169.019 53.3055C169.019 52.0496 169.226 51.1464 169.638 50.5959C170.06 50.0368 170.752 49.7572 171.716 49.7572C172.215 49.7572 172.744 49.8131 173.303 49.9249V47.0733H174.258ZM170.464 55.1765C170.602 55.3399 170.748 55.4518 170.903 55.512C171.058 55.5722 171.256 55.6023 171.496 55.6023C171.746 55.6023 172.021 55.5636 172.322 55.4862C172.632 55.4001 172.873 55.3184 173.045 55.241L173.303 55.1249V50.7507C172.752 50.6475 172.241 50.5959 171.767 50.5959C171.114 50.5959 170.658 50.8066 170.4 51.2281C170.142 51.641 170.013 52.2862 170.013 53.1636C170.013 54.1614 170.163 54.8324 170.464 55.1765ZM175.849 53.0991C175.849 51.9206 176.059 51.069 176.481 50.5443C176.902 50.0195 177.612 49.7572 178.61 49.7572C179.616 49.7572 180.326 50.0195 180.739 50.5443C181.16 51.069 181.371 51.9206 181.371 53.0991C181.371 54.2776 181.173 55.1335 180.778 55.6668C180.382 56.2001 179.659 56.4668 178.61 56.4668C177.56 56.4668 176.838 56.2001 176.442 55.6668C176.046 55.1335 175.849 54.2776 175.849 53.0991ZM176.842 53.0862C176.842 54.0238 176.954 54.6819 177.178 55.0604C177.41 55.4389 177.887 55.6281 178.61 55.6281C179.341 55.6281 179.818 55.4432 180.042 55.0733C180.266 54.6948 180.378 54.0324 180.378 53.0862C180.378 52.14 180.253 51.4905 180.003 51.1378C179.754 50.7765 179.289 50.5959 178.61 50.5959C177.939 50.5959 177.474 50.7765 177.216 51.1378C176.967 51.4905 176.842 52.14 176.842 53.0862ZM190.172 55.5378L190.546 55.4991L190.572 56.2603C189.591 56.398 188.752 56.4668 188.056 56.4668C187.127 56.4668 186.469 56.2001 186.081 55.6668C185.694 55.1249 185.501 54.2862 185.501 53.1507C185.501 50.8884 186.4 49.7572 188.198 49.7572C189.066 49.7572 189.716 50.0023 190.146 50.4927C190.576 50.9744 190.791 51.7357 190.791 52.7765L190.739 53.512H186.481C186.481 54.226 186.61 54.755 186.868 55.0991C187.127 55.4432 187.574 55.6152 188.21 55.6152C188.856 55.6152 189.509 55.5894 190.172 55.5378ZM189.823 52.7378C189.823 51.9464 189.694 51.3873 189.436 51.0604C189.187 50.7335 188.774 50.5701 188.198 50.5701C187.63 50.5701 187.2 50.7421 186.907 51.0862C186.623 51.4303 186.477 51.9808 186.469 52.7378H189.823ZM194.441 56.4668C193.572 56.4668 192.949 56.213 192.57 55.7055C192.2 55.198 192.015 54.3378 192.015 53.1249C192.015 51.912 192.239 51.0475 192.686 50.5314C193.134 50.0152 193.925 49.7572 195.06 49.7572L197.215 49.8862V59.2023H196.26V56.041C195.658 56.3249 195.052 56.4668 194.441 56.4668ZM195.073 50.5959C194.265 50.5959 193.714 50.798 193.422 51.2023C193.138 51.6066 192.996 52.2518 192.996 53.1378C192.996 54.0152 193.112 54.6475 193.344 55.0346C193.585 55.413 193.985 55.6023 194.544 55.6023C195.043 55.6023 195.538 55.5077 196.028 55.3184L196.26 55.2281V50.6733C195.727 50.6217 195.331 50.5959 195.073 50.5959ZM203.117 49.8862H204.084V56.3378H203.117V55.8862C202.472 56.2733 201.835 56.4668 201.207 56.4668C200.33 56.4668 199.745 56.2388 199.452 55.7829C199.168 55.327 199.026 54.484 199.026 53.2539V49.8862H199.994V53.241C199.994 54.1786 200.076 54.8066 200.239 55.1249C200.403 55.4432 200.773 55.6023 201.349 55.6023C201.633 55.6023 201.921 55.5636 202.214 55.4862C202.506 55.4001 202.73 55.3184 202.884 55.241L203.117 55.1249V49.8862ZM205.946 56.3378V49.8862H206.913V56.3378H205.946ZM205.946 48.4282V47.3056H206.913V48.4282H205.946ZM208.768 59.2023V49.8862H209.723V50.3507C210.377 49.955 211.022 49.7572 211.659 49.7572C212.476 49.7572 213.069 50.0195 213.439 50.5443C213.809 51.0604 213.994 51.9163 213.994 53.112C213.994 54.3077 213.775 55.1679 213.336 55.6926C212.906 56.2087 212.188 56.4668 211.181 56.4668C210.656 56.4668 210.175 56.4195 209.736 56.3249V59.2023H208.768ZM211.517 50.6217C211.259 50.6217 210.979 50.6647 210.678 50.7507C210.385 50.8367 210.153 50.9228 209.981 51.0088L209.736 51.1378V55.4862C210.347 55.5808 210.811 55.6281 211.13 55.6281C211.826 55.6281 212.312 55.4303 212.588 55.0346C212.871 54.6389 213.013 53.9937 213.013 53.0991C213.013 52.2045 212.884 51.5679 212.626 51.1894C212.377 50.8109 212.007 50.6217 211.517 50.6217ZM215.289 53.0991C215.289 51.9206 215.5 51.069 215.921 50.5443C216.343 50.0195 217.052 49.7572 218.05 49.7572C219.057 49.7572 219.766 50.0195 220.179 50.5443C220.601 51.069 220.811 51.9206 220.811 53.0991C220.811 54.2776 220.613 55.1335 220.218 55.6668C219.822 56.2001 219.1 56.4668 218.05 56.4668C217.001 56.4668 216.278 56.2001 215.882 55.6668C215.487 55.1335 215.289 54.2776 215.289 53.0991ZM216.282 53.0862C216.282 54.0238 216.394 54.6819 216.618 55.0604C216.85 55.4389 217.327 55.6281 218.05 55.6281C218.781 55.6281 219.259 55.4432 219.482 55.0733C219.706 54.6948 219.818 54.0324 219.818 53.0862C219.818 52.14 219.693 51.4905 219.444 51.1378C219.194 50.7765 218.73 50.5959 218.05 50.5959C217.379 50.5959 216.915 50.7765 216.657 51.1378C216.407 51.4905 216.282 52.14 216.282 53.0862ZM224.415 50.6217C223.478 50.6217 223.009 50.9486 223.009 51.6023C223.009 51.9034 223.117 52.1185 223.332 52.2475C223.547 52.3679 224.037 52.4969 224.803 52.6346C225.568 52.7636 226.11 52.9486 226.428 53.1894C226.747 53.4303 226.906 53.8819 226.906 54.5442C226.906 55.2066 226.691 55.6926 226.261 56.0023C225.839 56.312 225.22 56.4668 224.403 56.4668C223.869 56.4668 223.241 56.4066 222.519 56.2862L222.132 56.2216L222.183 55.3829C223.164 55.5292 223.904 55.6023 224.403 55.6023C224.901 55.6023 225.28 55.5249 225.538 55.37C225.805 55.2066 225.938 54.9399 225.938 54.57C225.938 54.1916 225.826 53.9378 225.603 53.8088C225.379 53.6711 224.889 53.5421 224.132 53.4217C223.375 53.3012 222.837 53.1249 222.519 52.8926C222.2 52.6604 222.041 52.2303 222.041 51.6023C222.041 50.9744 222.261 50.5099 222.699 50.2088C223.147 49.9077 223.701 49.7572 224.364 49.7572C224.889 49.7572 225.547 49.8174 226.338 49.9378L226.699 50.0023L226.673 50.8281C225.719 50.6905 224.966 50.6217 224.415 50.6217Z" />
<path fill="#FF8834" fill-rule="evenodd" clip-rule="evenodd" d="M42.866 5.97602L42.8579 5.97047L42.8561 5.97606L42.866 5.97602ZM42.866 5.97602L42.867 5.97927L42.8675 5.97867L42.866 5.97602ZM49.3473 17.1217L49.3233 17.1397L49.3197 17.1351L49.3473 17.1217ZM45.6081 13.7186C45.6178 13.724 45.6273 13.7294 45.6366 13.7351L45.5834 13.709L45.5846 13.706C45.5925 13.7101 45.6004 13.7143 45.6081 13.7186ZM45.2531 7.15176L45.2589 7.15846L45.259 7.15769C48.3081 9.27754 50.4844 12.1218 52.0758 15.45L52.0787 15.4472C53.6642 18.0065 54.4065 20.8479 54.7093 23.7932C55.0754 29.0157 54.4393 33.5613 52.5597 37.3141C52.4512 37.5308 52.339 37.6825 52.2259 37.8355L52.225 37.8367L52.2246 37.8372C52.1751 37.9042 52.1254 37.9714 52.0758 38.0444L52.0758 38.0445C50.3567 42.023 47.3818 44.9326 44.0089 47.4949C43.145 48.151 42.275 48.8013 41.2537 49.2199C39.9414 49.7603 38.8161 49.499 38.1362 48.445C37.3108 47.1683 37.3791 46.1796 38.5756 45.1701C39.3365 44.5275 40.1696 43.9687 41.0016 43.4106L41.0017 43.4105C41.2767 43.226 41.5516 43.0416 41.8237 42.8543C43.3746 41.7833 44.5309 40.3449 45.6883 38.905C46.0132 38.5008 46.3383 38.0964 46.6722 37.7001L46.6751 37.6975C47.9061 35.3864 49.0388 33.0366 49.4452 30.417C50.2676 25.0995 49.5076 20.0997 46.4257 15.5719C46.1397 15.157 45.8674 14.7339 45.5957 14.3119L45.5955 14.3116L45.5954 14.3114C45.4667 14.1115 45.3382 13.9118 45.2084 13.7133L45.2085 13.7133C42.7561 11.0946 40.0098 8.89754 36.6459 7.51694C32.4269 5.786 28.0684 5.38221 23.5822 5.97304C23.2274 6.09249 22.8726 6.17875 22.5166 6.16948C21.7151 6.36981 20.729 6.63672 20.0185 6.87739L20.0044 6.88751C14.6364 8.91833 10.3758 12.306 7.62058 17.3682C3.5827 24.7848 4.51795 31.9877 8.87054 38.9411C10.1547 40.9919 11.4735 43.0192 12.7926 45.0469L12.7926 45.047L12.7927 45.0471L12.7928 45.0474C13.517 46.1606 14.2413 47.274 14.96 48.3915C15.0016 48.4559 15.0436 48.52 15.0859 48.5845C15.4453 49.133 15.8205 49.7057 16.0437 50.6302C9.87407 47.8363 5.05238 44.0033 2.47823 37.7654C2.33448 37.432 2.21263 37.1247 2.07843 36.7863L2.07842 36.7863C2.01305 36.6215 1.94476 36.4493 1.86958 36.2631C-2.3019 25.9309 0.735412 15.0345 8.71022 7.74853L8.71628 7.74596L8.71021 7.74554C9.15011 7.35607 9.39122 7.18329 9.61608 7.02215C9.77937 6.90513 9.9341 6.79425 10.1502 6.61098C10.1673 6.5928 10.1889 6.57431 10.2149 6.55551L10.2155 6.55496L10.2155 6.55505L10.2156 6.55498C14.4197 3.03966 19.3632 1.22558 24.7252 0.771321C32.0973 0.144856 38.7895 2.22911 44.7513 6.62327C44.8833 6.72074 44.9917 6.84875 45.1002 6.97692L45.1003 6.97701C45.1504 7.03622 45.2005 7.09547 45.2531 7.15176ZM43.8012 36.8598C43.5043 37.2518 43.2073 37.6466 42.9134 38.0385L42.9133 38.0387C42.1927 38.8507 41.8576 39.2282 41.4998 39.5828C41.1888 39.891 40.8607 40.1819 40.2474 40.7254L40.2473 40.7255L40.2472 40.7255C39.4011 41.7053 38.448 42.5485 37.1772 42.9167C35.568 43.3828 34.4487 42.8781 33.9232 41.5004C33.4066 40.1436 33.8727 39.143 35.4107 38.3117L35.4145 38.3088L35.4107 38.3087C38.065 36.6075 40.0305 34.3124 41.0043 31.3137C42.4532 26.8542 42.1712 22.5848 39.1992 18.728C39.0588 18.5475 38.9414 18.348 38.8242 18.1487L38.8242 18.1487C38.7679 18.053 38.7116 17.9574 38.6529 17.864C36.0461 15.5066 33.1602 13.7252 29.5706 13.2917C24.0304 12.6237 19.4937 14.414 15.9428 18.7132C15.8159 18.8663 15.6739 19.0085 15.5317 19.1508C15.4644 19.2183 15.397 19.2858 15.3312 19.3545L15.2816 19.4182C13.2642 22.4583 12.8459 25.8362 13.2083 29.3779C13.313 29.5059 13.3192 29.6157 13.2297 29.7058C13.2663 29.8545 13.298 30.0045 13.3297 30.1544L13.3297 30.1545L13.3297 30.1545L13.3297 30.1546L13.3297 30.1546L13.3297 30.1547L13.3297 30.1547L13.3297 30.1548L13.3298 30.1548L13.3298 30.1549L13.3298 30.1549L13.3298 30.155L13.3298 30.155L13.3298 30.1551L13.3298 30.1551L13.3298 30.1552L13.3298 30.1552L13.3299 30.1553L13.3299 30.1553L13.3299 30.1554L13.3299 30.1554C13.4288 30.623 13.5276 31.0903 13.7724 31.5156C15.1577 34.2069 16.7692 36.7637 18.3808 39.3208C19.4255 40.9782 20.4701 42.6357 21.4533 44.3299C21.6739 44.7101 22.4162 45.9398 22.4162 45.9398L22.456 46.0061C23.3605 47.2943 24.1275 48.6662 24.8946 50.0382C25.3202 50.7995 25.7458 51.5607 26.1949 52.3077C26.3077 52.7798 26.0939 52.9401 25.6456 52.8807V52.8777L25.6307 52.8749C25.4593 52.8767 25.2877 52.8798 25.1161 52.883H25.1159H25.1157H25.1155H25.1153H25.1151H25.1149H25.1147H25.1146C23.777 52.9077 22.4374 52.9323 21.1849 52.2968L21.1713 52.2928C20.1682 51.9245 19.8441 51.45 19.4456 50.8663L19.4454 50.866C19.3949 50.7921 19.3433 50.7165 19.2889 50.6391C18.9982 50.2256 18.7668 49.774 18.5354 49.3222L18.5354 49.3222L18.5353 49.3222L18.5353 49.3221L18.5353 49.3221L18.5353 49.3221L18.5353 49.322L18.5352 49.322L18.5352 49.322L18.5352 49.3219L18.5352 49.3219L18.5352 49.3219L18.5352 49.3218L18.5351 49.3218L18.5351 49.3218L18.5351 49.3217L18.5351 49.3217L18.5351 49.3217L18.5351 49.3216L18.535 49.3216L18.535 49.3216L18.535 49.3215L18.535 49.3215L18.535 49.3215L18.535 49.3214L18.5349 49.3214L18.5349 49.3214L18.5349 49.3213L18.5349 49.3213L18.5349 49.3213L18.5349 49.3212C18.4308 49.1181 18.3267 48.9149 18.2171 48.7152L18.2201 48.7167C17.7492 48.0126 17.2754 47.31 16.8015 46.6074L16.801 46.6066L16.801 46.6066L16.8009 46.6065L16.8009 46.6064L16.8008 46.6064L16.8008 46.6063L16.8008 46.6062L16.8007 46.6062L16.8007 46.6061L16.8006 46.606L16.8006 46.606L16.8005 46.6059L16.8005 46.6058L16.8004 46.6057L16.8004 46.6057L16.8003 46.6056L16.8003 46.6055L16.8003 46.6055L16.8002 46.6054L16.8002 46.6053L16.8001 46.6053L16.8001 46.6052L16.8 46.6051L16.8 46.6051L16.7999 46.605L16.7999 46.6049L16.7998 46.6049L16.7998 46.6048L16.7998 46.6047L16.7997 46.6046L16.7997 46.6046L16.7996 46.6045L16.7996 46.6044L16.7995 46.6044L16.7995 46.6043L16.7994 46.6042L16.7994 46.6042L16.7993 46.6041L16.7993 46.604L16.7992 46.604C14.1879 42.7319 11.5744 38.8567 9.44952 34.6925C6.1925 28.309 7.46621 19.9572 12.3562 14.702C14.4998 12.398 16.9641 10.5454 19.9896 9.52995C24.6302 7.81089 29.3034 7.6951 34.0152 9.22118C40.4521 11.5905 44.8759 15.8748 46.7405 22.5937L46.7447 22.6263C47.6663 26.1497 47.5719 29.59 45.9402 32.9026C45.9178 32.9566 45.8945 33.0109 45.8706 33.0654C45.7514 33.3365 45.6932 33.4606 45.6605 33.5305C45.6407 33.5727 45.6302 33.5951 45.6212 33.6181C45.6109 33.6442 45.6024 33.671 45.5844 33.7283C45.5622 33.7992 45.5252 33.9167 45.4519 34.1372L45.4381 34.1358C44.9236 35.3345 44.6318 35.7303 44.1073 36.4417C44.0135 36.5688 43.9123 36.7061 43.8011 36.8598L43.8012 36.8598ZM38.2016 22.3888C36.435 18.532 33.368 16.0945 28.9412 15.753C28.6016 15.6863 28.2651 15.6605 27.9307 15.6622C24.7096 15.4757 21.8423 16.4169 19.4017 18.7309C19.111 19.0066 19.1078 19.0096 19.1078 19.0126V19.0127C19.1078 19.0158 19.1078 19.0219 18.8139 19.3129C18.2824 19.9185 18.1809 20.0434 18.1302 20.1058L18.1302 20.1058L18.1105 20.1299C18.0728 20.1755 18.0326 20.219 17.7509 20.5242L17.7532 20.5251C15.2063 23.8473 14.5891 27.576 16.5425 31.2127C19.1731 36.1116 22.252 40.773 25.3605 45.3988C26.1141 46.986 27.0574 48.4606 28.0956 49.8788L28.095 49.879C28.2357 50.1022 28.3794 50.3238 28.5231 50.5453C28.8553 51.0575 29.1872 51.5693 29.4815 52.0998C29.8259 52.7144 30.3188 52.8807 30.9631 52.7679C31.2553 52.7166 31.548 52.6678 31.8406 52.6189C32.6153 52.4897 33.3897 52.3605 34.1548 52.186C34.6922 52.0642 35.2979 51.7644 34.8228 51.0607C34.328 50.3241 33.8856 49.5538 33.4431 48.7835C32.7147 47.5151 31.9861 46.2466 31.0239 45.1287L31.0195 45.1197C30.969 45.0247 30.9156 44.9326 30.8621 44.8406L30.8565 44.8337C30.4316 43.7174 29.7057 42.79 28.9768 41.8626L28.9749 41.8598L28.9767 41.8597C28.8694 41.6597 28.7647 41.4578 28.6598 41.2558C28.4253 40.8037 28.1904 40.3509 27.9257 39.9179C27.0361 38.467 26.1409 37.0198 25.2458 35.5726C24.1664 33.8274 23.087 32.0823 22.0173 30.331C19.3155 25.9101 22.4122 20.162 28.0029 20.6876C31.5509 21.0201 34.3299 24.3365 33.7925 27.8815C33.5355 29.5795 32.427 30.5237 31.2852 31.4964C31.1213 31.636 30.9567 31.7763 30.7938 31.9194C29.4874 33.0714 29.2766 34.1521 29.9535 35.313C30.6691 36.5422 31.6667 36.8183 33.4065 36.269L33.3825 36.2682L33.4096 36.2631C34.2053 36.0641 34.8525 35.6158 35.4255 35.0428C35.6406 34.7561 35.879 34.4891 36.1177 34.2217L36.1177 34.2217L36.1177 34.2216L36.1177 34.2216L36.1178 34.2216L36.1178 34.2215L36.1178 34.2215L36.1178 34.2215L36.1179 34.2214L36.1179 34.2214L36.1179 34.2214L36.1179 34.2213L36.1179 34.2213L36.118 34.2213L36.118 34.2212L36.118 34.2212L36.118 34.2211L36.1181 34.2211L36.1181 34.2211L36.1181 34.221L36.1181 34.221L36.1181 34.221L36.1182 34.2209L36.1182 34.2209L36.1182 34.2209L36.1182 34.2208L36.1183 34.2208L36.1183 34.2208L36.1183 34.2207L36.1183 34.2207L36.1184 34.2207L36.1184 34.2206L36.1184 34.2206L36.1184 34.2206C36.3046 34.0121 36.491 33.8034 36.6666 33.585C39.505 30.1706 40.0038 26.3168 38.2016 22.3888ZM18.4054 25.3983L18.4046 25.4001L18.406 25.3995L18.4054 25.3983Z" />
</svg>
